<svg width="30" height="30" viewBox="0 0 30 30" fill="none" xmlns="http://www.w3.org/2000/svg">
<path d="M28.6362 0H17.7272C16.9741 0 16.3636 0.628504 16.3636 1.40376C16.3636 2.17901 16.9741 2.80752 17.7272 2.80752H25.3442L11.3086 17.2561C10.776 17.8043 10.776 18.693 11.3086 19.2413C11.5748 19.5153 11.9238 19.6524 12.2727 19.6524C12.6217 19.6524 12.9708 19.5154 13.237 19.2412L27.2726 4.79267V12.6337C27.2726 13.409 27.8832 14.0375 28.6363 14.0375C29.3894 14.0375 29.9999 13.409 29.9999 12.6337V1.40376C29.9999 0.628504 29.3893 0 28.6362 0Z" fill="#A3ABD8"/>
<path d="M23.1816 13.1551C22.4285 13.1551 21.8179 13.7836 21.8179 14.5589V27.1926H2.72722V7.54012H14.9998C15.7529 7.54012 16.3635 6.91162 16.3635 6.13636C16.3635 5.36111 15.7529 4.73267 14.9998 4.73267H1.36364C0.610541 4.73267 0 5.36117 0 6.13642V28.5963C0 29.3715 0.610541 30 1.36364 30H23.1816C23.9347 30 24.5453 29.3715 24.5453 28.5963V14.5589C24.5452 13.7836 23.9347 13.1551 23.1816 13.1551Z" fill="#A3ABD8"/>
</svg>
