<svg width="40" height="40" viewBox="0 0 40 40" fill="none" xmlns="http://www.w3.org/2000/svg">
<path d="M0.306679 17.4367C-0.991654 25.6133 2.64168 35.475 13.845 39.1133C14.045 39.15 14.23 39.1667 14.4033 39.1667C15.7067 39.1667 16.6033 38.1967 16.6033 37C16.4417 36.1283 17.2417 32.5967 15.07 33.0717C10.8717 33.965 10.3683 31.62 9.72834 30.3933C11.5383 32.7167 14.2583 32.6583 16.31 31.7583C17.4483 31.2583 16.8533 29.985 17.3933 29.52C18.22 28.81 17.8 27.4483 16.715 27.33C12.8583 26.905 9.28668 25.6617 9.28668 19.4933C9.28668 15.88 11.795 15.5567 11.1033 14.045C11.0783 13.99 10.5483 12.7883 11.0283 10.9633C13.3933 11.4 14.4817 13.0967 15.6167 12.7917C18.4283 12.025 21.5233 12.025 24.3333 12.7917C25.5067 13.1067 26.345 11.4567 28.8967 10.9533C29.6317 13.71 28.1083 14.3833 29.0683 15.415C30.1217 16.5483 30.6567 17.92 30.6567 19.4933C30.6567 28.7667 22.795 26.0883 22.155 28.1933C22.0083 28.6733 22.1633 29.1917 22.5467 29.5133C23.5633 30.3683 23.43 32.5633 23.3217 34.3283C23.21 36.1583 23.1133 37.7367 24.125 38.6267C24.4817 38.9433 25.1167 39.2817 26.265 39.0483C37.3217 35.4967 40.9817 25.6783 39.7033 17.52C36.21 -4.76 3.82668 -4.73334 0.306679 17.4367ZM14.09 35.7333L14.0967 36.575C13.225 36.2733 12.405 35.925 11.6383 35.5367C12.3467 35.7183 13.16 35.7967 14.09 35.7333ZM14.7067 29.5667C14.6983 29.61 14.69 29.655 14.6817 29.7C13.26 30.12 12.1667 29.7017 11.42 28.4467C11.42 28.445 11.42 28.445 11.4183 28.4433C12.5517 29.05 13.72 29.3767 14.7067 29.5667ZM20 3.33333C39.7217 3.33333 44.17 30.445 25.7817 36.5683C25.7183 36.0733 25.7767 35.14 25.8167 34.4817C25.9133 32.8967 26.0267 31.05 25.4617 29.5067C33.9417 27.7417 34.65 18.43 31.385 14.2817C31.79 12.695 31.6267 8.96666 30.17 8.50999C29.8267 8.40166 27.995 8.00333 24.4417 10.2383C21.54 9.54499 18.4083 9.54333 15.5067 10.2383C13.7333 9.12666 9.73668 7.31833 8.97001 9.23833C8.08001 11.475 8.29168 13.2833 8.55668 14.2883C5.65835 17.9617 6.52668 24.1117 9.44668 26.9983C7.79168 26.2067 5.51168 25.9367 5.02001 27.5217C4.48168 29.25 6.54001 29.04 7.81835 32.195C7.94001 32.5883 8.16501 33.05 8.51001 33.5083C-2.84165 24.2333 2.63501 3.33333 20 3.33333Z" fill="#A3ABD8"/>
</svg>
