<svg width="40" height="40" viewBox="0 0 40 40" fill="none" xmlns="http://www.w3.org/2000/svg">
<path d="M0.610382 39.8387H10.9675V12.6033H0.610382V39.8387ZM2.95413 14.947H8.62374V37.4948H2.95413V14.947Z" fill="#A3ABD8"/>
<path d="M5.78898 0.161316C2.59687 0.161316 0 2.75827 0 5.9503C0 9.14233 2.59687 11.7394 5.78898 11.7394C8.98109 11.7394 11.578 9.14241 11.578 5.9503C11.578 2.75819 8.98101 0.161316 5.78898 0.161316ZM2.34375 5.9503C2.34375 4.05061 3.88922 2.50507 5.78898 2.50507C7.68875 2.50507 9.23429 4.05053 9.23429 5.9503C9.23429 7.85006 7.68875 9.39561 5.78898 9.39561C3.88922 9.39561 2.34375 7.84999 2.34375 5.9503Z" fill="#A3ABD8"/>
<path d="M39.9749 21.1555C39.6063 15.8543 35.1845 11.7692 29.7024 11.7692C27.2503 11.7692 24.9355 12.6217 23.1117 14.1344V12.6031H13.1874V39.8385H23.5446V24.9429C23.5446 23.2641 24.9103 21.8984 26.5892 21.8984C28.2678 21.8984 29.6336 23.2641 29.6336 24.9436L29.6436 39.8386H40V21.1806L39.9749 21.1555ZM21.2009 37.4949H15.5312V14.947H20.7678V18.2944L22.6432 18.3052L22.9917 17.7642C24.4643 15.4779 26.973 14.1131 29.7024 14.1131C34.0645 14.1131 37.5573 17.4413 37.6539 21.69L37.6563 37.4949H31.9858L31.9774 24.9429C31.9774 21.9718 29.5602 19.5546 26.5892 19.5546C23.6181 19.5546 21.2009 21.9718 21.2009 24.9429V37.4949Z" fill="#A3ABD8"/>
</svg>
