<svg width="40" height="40" viewBox="0 0 40 40" fill="none" xmlns="http://www.w3.org/2000/svg">
<g clip-path="url(#clip0)">
<path d="M39.6677 7.3081C39.3998 7.12645 39.0449 7.13629 38.786 7.33156C38.4462 7.58888 37.8937 7.79323 37.2988 7.95066C38.8481 6.21445 38.8814 5.05497 38.8647 4.78856C38.8473 4.51307 38.6816 4.26861 38.4318 4.1513C38.1813 4.03323 37.8876 4.06199 37.6644 4.22395C35.9214 5.49091 34.1852 5.75808 33.1528 5.78532C31.568 4.26861 29.5101 3.43759 27.3198 3.43759C22.6304 3.43759 18.8159 7.30355 18.8159 12.055C18.8159 12.4637 18.8447 12.8717 18.9014 13.2758C10.7744 13.1842 4.17476 5.39706 4.10664 5.31608C3.94771 5.12687 3.70703 5.02545 3.4603 5.0474C3.21357 5.06859 2.99332 5.20861 2.86996 5.42355C0.531308 9.48024 2.09646 13.0435 3.5269 15.0839C3.27411 14.9492 3.06901 14.816 2.9464 14.7259C2.71935 14.5564 2.41585 14.5284 2.16004 14.654C1.90498 14.7797 1.74226 15.037 1.73696 15.3208C1.67414 19.1868 3.53447 21.4013 5.28429 22.6259C5.05119 22.6039 4.81429 22.6902 4.65233 22.8666C4.47069 23.0641 4.40635 23.3434 4.48507 23.5999C5.69375 27.556 8.66133 28.9001 10.5497 29.3565C6.66705 32.3793 0.952871 31.406 0.890053 31.3954C0.544932 31.3341 0.204351 31.5158 0.0635783 31.8359C-0.076438 32.1553 0.0189244 32.5299 0.297443 32.7419C4.39576 35.8699 9.29784 36.5624 12.8384 36.5624C15.5168 36.5624 17.4173 36.1658 17.5989 36.1257C35.5346 31.8753 36.0394 15.4464 35.9978 12.7543C39.365 9.62328 39.891 8.4305 39.972 8.13533C40.059 7.82275 39.9364 7.48974 39.6677 7.3081ZM34.7195 11.8757C34.5507 12.0308 34.4622 12.2541 34.4773 12.4834C34.525 13.21 35.4423 30.3427 17.2651 34.6499C17.1826 34.6673 9.95705 36.1749 3.69341 33.0718C6.34009 32.9984 10.1349 32.3052 12.7786 29.3368C12.9784 29.1135 13.0268 28.7926 12.9027 28.5202C12.7801 28.25 12.5099 28.0767 12.214 28.0767C12.2117 28.0767 12.2087 28.0767 12.2064 28.0767C12.1686 28.1009 8.19436 28.0721 6.37491 24.2917C7.10753 24.3333 8.01121 24.2879 8.73096 23.9564C9.02765 23.8194 9.20248 23.5084 9.16615 23.1837C9.12982 22.8597 8.88914 22.5956 8.56976 22.5282C8.36617 22.4851 3.94165 21.4959 3.32255 16.6695C3.99387 16.9632 4.85289 17.2031 5.70207 17.0737C5.99421 17.0298 6.23338 16.8201 6.31587 16.5363C6.39837 16.2525 6.3083 15.9467 6.08504 15.753C5.89582 15.588 1.74075 11.8953 3.71081 7.13251C5.84966 9.37655 12.1844 15.208 19.8596 14.7676C20.0844 14.7547 20.2925 14.6412 20.4265 14.4595C20.5597 14.2779 20.6051 14.0463 20.5506 13.8276C20.4053 13.2486 20.3311 12.6522 20.3311 12.0558C20.3311 8.13835 23.4675 4.95204 27.3221 4.95204C29.2074 4.95204 30.9761 5.70434 32.3014 7.0712C32.4406 7.215 32.6321 7.2975 32.8319 7.30128C33.6342 7.31264 34.9526 7.21803 36.4421 6.62088C36.0122 7.15597 35.381 7.79702 34.4523 8.52661C34.1897 8.73323 34.0936 9.08668 34.2154 9.39774C34.3373 9.70956 34.6521 9.90559 34.9806 9.87607C35.157 9.86169 36.0561 9.78298 37.0725 9.56274C36.517 10.1591 35.7579 10.9205 34.7195 11.8757Z" fill="#A3ABD8"/>
</g>
<defs>
<clipPath id="clip0">
<rect width="40" height="40" fill="white"/>
</clipPath>
</defs>
</svg>
